Coordinates
version=1
nRows=29
nColumns=24
inDegrees=yes

Units are S.I. units (second, meters, Newtons, ...)
Angles are in degrees.

endheader
time	pelvis_tilt	pelvis_list	pelvis_rotation	pelvis_tx	pelvis_ty	pelvis_tz	hip_flexion_r	hip_adduction_r	hip_rotation_r	knee_angle_r	ankle_angle_r	subtalar_angle_r	mtp_angle_r	hip_flexion_l	hip_adduction_l	hip_rotation_l	knee_angle_l	ankle_angle_l	subtalar_angle_l	mtp_angle_l	lumbar_extension	lumbar_bending	lumbar_rotation
      1.62000000	    -10.02812463	     -1.67754124	      4.05836326	     -0.07722466	      1.27820363	     -0.91138153	     34.93918634	      2.17374339	      0.85259009	    -30.29056236	      0.25577437	    -18.74680102	      4.23970275	      1.47782339	      6.19812068	     14.98892864	     -2.08249779	      4.37686287	    -17.88951096	      2.53923657	     -0.41595232	      2.85755477	     -5.60066597
      1.62500000	    -10.23128980	     -1.57572865	      4.12818295	     -0.07191838	      1.27719003	     -0.91131705	     35.31246922	      2.02793733	      1.40711417	    -28.59858509	     -0.18672093	    -19.06462866	      3.93126589	      1.40598581	      6.33995790	     15.36061305	     -2.31234127	      4.65804466	    -18.22773773	      2.58305748	     -0.27493710	      2.76828642	     -5.66084455
      1.63000000	    -10.24344559	     -1.48749312	      4.26120200	     -0.06650032	      1.27633623	     -0.91128603	     35.42249879	      1.82284871	      1.71763165	    -26.86360428	     -0.54695098	    -19.00320764	      3.71030568	      1.07219379	      6.44194091	     15.73971170	     -2.45990711	      4.90467818	    -18.50174571	      2.59268945	     -0.32171578	      2.69147491	     -5.78315593
      1.63500000	    -10.35292638	     -1.41666691	      4.37142119	     -0.06113747	      1.27537175	     -0.91132326	     35.58626131	      1.65355723	      2.22631984	    -25.08111403	     -0.75187500	    -18.78084148	      3.03184314	      0.86505646	      6.54405983	     16.13862373	     -2.62555001	      5.05221865	    -19.00825498	      2.67008145	     -0.28156386	      2.68406907	     -6.07593586
      1.64000000	    -10.58078686	     -1.32975701	      4.48519497	     -0.05577945	      1.27420972	     -0.91144521	     35.87643486	      1.44209077	      2.76704946	    -23.29627336	     -1.10139878	    -18.69336363	      2.70353152	      0.83276796	      6.68369212	     16.51141418	     -2.88418467	      5.38864587	    -19.25403137	      2.75099633	     -0.11728898	      2.63897952	     -6.21437179
      1.64500000	    -10.70145709	     -1.23062886	      4.59049965	     -0.05008801	      1.27315068	     -0.91133726	     35.94959866	      1.22956771	      3.30764111	    -21.41038512	     -1.23084340	    -18.32421036	      2.59016116	      0.58875043	      6.79697903	     16.75779624	     -3.02210225	      5.75849357	    -19.40663461	      2.76095241	      0.00268720	      2.55001200	     -6.27547474
      1.65000000	    -10.76137914	     -1.11286547	      4.76066955	     -0.04450888	      1.27209560	     -0.91121441	     35.88073145	      0.96086012	      3.87396636	    -19.42094855	     -1.44225447	    -18.09847075	      2.14699705	      0.34288081	      6.92667920	     17.03046471	     -3.26025215	      6.07337143	    -19.48748835	      2.88992713	      0.05072030	      2.39433793	     -6.43511997
      1.65500000	    -10.86112684	     -0.97678109	      4.88838865	     -0.03881359	      1.27096804	     -0.91103032	     35.78016114	      0.68859078	      4.50361056	    -17.34217266	     -1.58776761	    -17.56152809	      1.81701913	      0.07475469	      7.06696217	     17.27317584	     -3.39399561	      6.32348187	    -19.60621217	      2.97329962	      0.11543200	      2.25015277	     -6.48920215
      1.66000000	    -11.09418504	     -0.79666641	      5.01097824	     -0.03313884	      1.26957155	     -0.91084723	     35.85584001	      0.36690557	      5.22269188	    -15.36683524	     -1.58553610	    -17.07739710	      1.69546337	      0.01487064	      7.29177003	     17.32769111	     -3.65543323	      6.65299976	    -19.63918851	      3.03501666	      0.32861705	      2.08314422	     -6.79208015
      1.66500000	    -11.28280999	     -0.61058919	      5.12038719	     -0.02736117	      1.26825131	     -0.91059681	     35.83639235	      0.02492629	      5.98110256	    -13.34654376	     -1.60900158	    -16.55863544	      1.67144069	     -0.11776627	      7.51354791	     17.40237966	     -3.88328973	      6.96692184	    -19.65748772	      3.11564835	      0.54756869	      1.84716409	     -6.95251319
      1.67000000	    -11.48019726	     -0.39874034	      5.19587828	     -0.02151907	      1.26685359	     -0.91019868	     35.84214130	     -0.32348614	      6.71957999	    -11.43033599	     -1.65681679	    -15.85293531	      1.75471501	     -0.27574490	      7.75036227	     17.44065873	     -4.05977232	      7.23722646	    -19.68864196	      3.21153967	      0.76715296	      1.60197890	     -6.98632454
      1.67500000	    -11.62644072	     -0.20669559	      5.27843252	     -0.01560956	      1.26553444	     -0.90990017	     35.85020520	     -0.67620826	      7.27104117	     -9.72332026	     -1.43838036	    -14.91136038	      1.47879861	     -0.45148106	      7.97891296	     17.44842452	     -4.30680124	      7.57705319	    -19.65779574	      3.80544417	      0.90229318	      1.38960928	     -7.03462299
      1.68000000	    -11.82460073	     -0.03018785	      5.37078341	     -0.00981918	      1.26422796	     -0.90976016	     35.88919629	     -1.03475487	      7.80220074	     -7.99524931	     -1.43405277	    -14.39610623	      1.46487110	     -0.54572963	      8.22315820	     17.57566101	     -4.60324286	      7.81666699	    -19.86416615	      3.84837245	      1.11308198	      1.23909203	     -7.07349594
      1.68500000	    -12.01964806	      0.15942165	      5.50709533	     -0.00411517	      1.26290999	     -0.90975745	     35.94681229	     -1.44862771	      8.11341682	     -6.38558400	     -1.41829785	    -13.81176867	      1.27235566	     -0.58565705	      8.50806252	     17.71055662	     -4.99333753	      8.01662157	    -20.14775261	      4.03907569	      1.28256434	      1.06334122	     -7.24100878
      1.69000000	    -12.15693283	      0.34057371	      5.63219941	      0.00173958	      1.26169198	     -0.90961008	     35.94131985	     -1.83676308	      8.41416503	     -4.90381599	     -1.31743684	    -13.04330428	      0.78277820	     -0.78262791	      8.73576613	     17.82347884	     -5.21089006	      8.13892844	    -20.40332755	      4.44448150	      1.40120106	      0.90630481	     -7.31437179
      1.69500000	    -12.29319138	      0.50360232	      5.75201789	      0.00766133	      1.26051528	     -0.90930495	     35.91892562	     -2.17245375	      8.73315968	     -3.46433513	     -1.39541089	    -12.66577140	      0.76691724	     -0.94613583	      8.93610031	     17.85295778	     -5.51201214	      8.31161778	    -20.47348464	      4.47917328	      1.56982854	      0.71874816	     -7.45182091
      1.70000000	    -12.40378085	      0.58461143	      5.94261216	      0.01366880	      1.25941698	     -0.90908812	     35.83371083	     -2.45814559	      8.73733280	     -2.10675044	     -1.48860685	    -12.34969812	      0.75832076	     -1.08356234	      9.05303508	     17.89531686	     -5.90280894	      8.59505440	    -20.42388057	      4.63098956	      1.71440024	      0.63474088	     -7.59079496
      1.70500000	    -12.57042551	      0.65951922	      6.09763545	      0.01977277	      1.25835537	     -0.90863899	     35.87282072	     -2.67305797	      8.61408826	     -0.98779552	     -1.60897152	    -12.00204279	      0.77108866	     -1.16069470	      9.13894187	     17.74934024	     -6.28297315	      8.93104576	    -20.17649647	      4.87643284	      1.90935184	      0.53445029	     -7.75186539
      1.71000000	    -12.62596318	      0.73363158	      6.19124325	      0.02587889	      1.25743753	     -0.90809176	     35.89283374	     -2.80625316	      8.46160115	     -0.21100707	     -1.66823255	    -11.80926752	      0.60558516	     -1.32303991	      9.20351456	     17.30799701	     -6.72901877	      9.40852042	    -19.51288763	      5.20952368	      1.96692040	      0.44363276	     -7.86083421
      1.71500000	    -12.75860539	      0.85211047	      6.21079331	      0.03192373	      1.25637059	     -0.90745552	     36.22513649	     -2.88695102	      8.17093931	     -0.00880627	     -1.56474266	    -11.39932242	      0.45183783	     -1.39495999	      9.33117570	     16.98566847	     -7.18757595	      9.71803696	    -19.11700671	      5.37847691	      2.14563810	      0.30129324	     -7.80334838
      1.72000000	    -12.89807857	      0.89484752	      6.25958800	      0.03814120	      1.25539515	     -0.90677549	     36.62886566	     -2.88516753	      7.86597283	     -0.10771003	     -1.50421242	    -11.15292000	      0.40159217	     -1.47831929	      9.35164544	     16.68787549	     -7.62294962	     10.04128656	    -18.75836798	      5.47271984	      2.35236698	      0.23515504	     -7.86391816
      1.72500000	    -13.00370650	      0.96145407	      6.23902338	      0.04428002	      1.25446841	     -0.90583754	     37.11984774	     -2.81885847	      7.58967011	     -0.57023841	     -1.35330513	    -10.70723757	      0.37142960	     -1.61023873	      9.35584586	     16.21310927	     -8.00460164	     10.40993386	    -18.05664777	      5.67025999	      2.45910009	      0.12979759	     -7.81645521
      1.73000000	    -13.04602587	      1.03533814	      6.25863948	      0.05062284	      1.25360290	     -0.90496558	     37.53483676	     -2.76893062	      7.25094615	     -1.22009888	     -1.04716640	    -10.29132338	      0.28165028	     -1.77556019	      9.36729890	     15.73543701	     -8.47243536	     10.72249292	    -17.36852442	      6.00366079	      2.57047509	     -0.00170266	     -7.80800923
      1.73500000	    -13.09986106	      1.11029776	      6.36507568	      0.05697194	      1.25270335	     -0.90430262	     37.96430413	     -2.79891254	      6.92241837	     -2.05118439	     -0.71358118	     -9.86830977	      0.02874552	     -1.88837824	      9.40898646	     15.52305363	     -9.03310537	     10.94529718	    -16.93753626	      6.37954360	      2.69042556	     -0.09183225	     -7.97558355
      1.74000000	    -13.13976330	      1.26050417	      6.45456493	      0.06335346	      1.25176859	     -0.90366348	     38.37782339	     -2.88637160	      6.87290738	     -3.00915159	     -0.38735082	     -9.58357678	     -0.10438303	     -2.05453924	      9.53091519	     15.34582589	     -9.55685295	     11.05566487	    -16.58743333	      6.62522750	      2.78732877	     -0.24623639	     -7.96979698
      1.74500000	    -13.25874286	      1.38712313	      6.53893644	      0.06982417	      1.25077429	     -0.90309272	     38.87345867	     -2.94688443	      6.81643755	     -4.09715560	     -0.15564179	     -9.41320508	     -0.11267524	     -2.06265256	      9.64362764	     15.15117020	    -10.20585316	     11.24732397	    -16.16885657	      6.89456023	      3.00132785	     -0.42120486	     -8.05609917
      1.75000000	    -13.27835215	      1.52300836	      6.68069855	      0.07642209	      1.24998459	     -0.90263598	     39.19690292	     -3.05551897	      6.72748385	     -5.20884924	      0.12905367	     -9.24888171	     -0.19553637	     -2.20028004	      9.74746993	     14.98883287	    -10.80535478	     11.32058092	    -15.66893035	      7.24420309	      3.12263060	     -0.55162047	     -8.24049672
      1.75500000	    -13.29736178	      1.62231007	      6.88967510	      0.08303569	      1.24926555	     -0.90217776	     39.42958369	     -3.18246125	      6.57944994	     -6.26950516	      0.36147374	     -8.89906394	     -0.34112718	     -2.30520929	      9.80459029	     14.87264981	    -11.46984172	     11.32490714	    -15.21157573	      7.60797572	      3.25405659	     -0.64625145	     -8.48386692
      1.76000000	    -13.20097057	      1.67067368	      7.09619594	      0.08965224	      1.24871770	     -0.90177145	     39.44736429	     -3.25761783	      6.37473383	     -7.25821826	      0.43561084	     -8.56057601	     -0.61118366	     -2.45735215	      9.79899462	     14.71389306	    -12.24784348	     11.34204432	    -14.72365535	      8.07700865	      3.24327717	     -0.67858890	     -8.64639451
